<?xml version="1.0" encoding="iso-8859-1"?>
<!-- Generator: Adobe Illustrator 17.1.0, SVG Export Plug-In . SVG Version: 6.00 Build 0)  -->
<!DOCTYPE svg PUBLIC "-//W3C//DTD SVG 1.1//EN" "http://www.w3.org/Graphics/SVG/1.1/DTD/svg11.dtd">
<svg version="1.1" id="Layer_1" xmlns="http://www.w3.org/2000/svg" xmlns:xlink="http://www.w3.org/1999/xlink" x="0px" y="0px"
	 viewBox="0 0 200 200" style="enable-background:new 0 0 200 200;" xml:space="preserve">
<path style="fill:#393939;" d="M41.547,77.75c3.58,1.572,7.072,2.922,10.551,4.398c6.443,2.735,14.046,6.779,23.659,5.435
	c6.711-0.936,13.803-1.216,20.941-0.64c15.623,1.258,31.495,3.628,44.198,7.352c4.721-3.949,10.313-7.222,15.906-10.709
	c4.166-2.595,7.753-5.376,12.07-7.913c1.396-0.822,2.853-1.778,4.313-2.317c1.268-0.467,2.647-0.735,3.996-1.199
	c1.334-0.46,3.039-1.444,4.317-1.123c2.261,0.576,2.058,3.104,2.481,5.839c0.217,1.423,0.714,2.607,0.797,3.513
	c0.106,1.189-0.362,2.459-0.718,3.838c-0.313,1.207-0.439,2.866-1.68,2.882c-0.94,0.011-1.407-0.88-1.436-1.759
	c-0.032-0.846,0.431-1.604,0.477-2.639c0.053-1.112-0.053-2.177-0.082-3.114c-0.026-0.91,0.217-2.013-0.321-2.642
	c-0.922,0.135-1.369,1.154-1.838,1.839c-0.513,0.747-1.063,1.518-1.518,2.319c-0.984,1.735-1.663,4.002-2.878,5.355
	c-0.827,0.922-2.434,1.77-3.676,2.559c-7.602,4.84-15.025,9.724-22.459,14.706c-1.244,0.832-2.523,1.71-3.915,2.235
	c-0.767,2.697-3.718,3.347-5.516,5.112c-1.426,1.41-1.992,4.005-2.639,6.16c-0.73,2.43-1.371,4.649-2.157,6.636
	c-1.569,3.978-3.225,8.808-6.875,10.709c-5.688,2.964-14.789,1.559-20.939,0.159c-6.681-1.527-12.691-3.566-18.385-5.912
	c-3.025-1.247-5.357-2.642-7.434-4.718c-3.888-3.889-6.717-9.621-9.353-14.947c-0.642-1.302-1.339-2.689-1.995-4.076
	c-1.545-3.271-2.515-6.412-7.116-6.713c-0.486,4.75-1.344,8.055-2.795,11.666c-1.369,3.408-2.819,6.9-6.633,7.756
	c-2.658,0.597-5.917,0.053-8.234-0.481c-2.402-0.544-4.626-1.484-6.555-2.399c-4.348-2.06-7.737-4.327-10.231-7.751
	c-2.623-3.606-4.444-7.56-6.074-11.909c-1.239-3.302-2.156-6.794-3.596-9.832c-0.488-1.028-1.394-2.053-1.6-3.035
	c-0.219-1.06-0.436-2.359-0.719-3.839c-0.235-1.222-0.846-2.923-0.639-3.674c0.325-1.194,4.01-1.878,5.273-2.241
	c11.808-3.389,24.438-5.643,36.929-8.151c2.184-0.439,4.289-0.605,6.794-0.719c3.025-0.143,7.402-0.121,10.631,0
	c3.344,0.121,5.861,1.196,7.75,2.637c2.935,2.224,5.946,4.216,9.436,6.155c1.11,0.616,2.732,1.128,3.035,2.155
	c0.553,1.884-1.05,4.412-2.479,4.478c-1.21,0.053-2.438-1.239-3.037-2.399c-0.255-0.501-0.234-1.28-0.481-1.759
	c-0.399-0.792-1.738-1.559-2.636-2.158c-1.937-1.292-3.627-2.359-5.675-3.757c-0.91-0.623-1.959-1.648-2.955-1.759
	c-1.392-0.153-3.009,0.568-4.156,1.04c-2.475,1.018-4.583,2.109-6.713,3.677c-1.056,0.775-2.266,1.524-3.358,1.837
	c-1.743,0.504-3.69,0.637-5.515,0.962C52.555,75.856,47.259,76.741,41.547,77.75z M31.873,102.688
	c1.582,2.736,3.548,5.484,6.158,7.439c3.426,2.562,10.02,5.072,15.185,2.873c0.817-1.5,1.057-2.726,1.518-4.557
	c1.263-5.015,1.953-13.09-0.798-17.346c-0.814-1.252-2.449-2.449-3.917-3.514c-2.97-2.161-6.359-3.872-9.833-5.193
	c-1.856-0.711-3.801-1.088-5.753-1.76c-0.105-0.036-0.219,0.059-0.323,0.08c-2.971,0.577-6.207,1.172-9.349,1.835
	C26.241,89.754,28.442,96.755,31.873,102.688z M74.075,96.937c0.359,0.996,1.503,1.402,2.319,2.155
	c4.031,3.738,6.512,9.788,7.351,16.466c0.124,0.993,0.016,2.097,0.323,3.117c1.106,3.719,5.659,5.458,9.031,7.037
	c2.963,1.374,5.677,2.478,9.989,3.751c6.985,2.061,19.107,3.973,24.139-0.639c1.596-2.911,2.952-6.831,3.438-11.27
	c0.523-4.797,0.172-9.944-1.199-13.509c-2.513-6.548-11.053-8.279-18.703-9.83c-10.881-2.203-25.826-4.108-36.287-0.798
	C74.046,94.477,73.637,95.705,74.075,96.937z"/>
</svg>
